<svg width="272" height="17" viewBox="0 0 272 17" fill="none" xmlns="http://www.w3.org/2000/svg">
<path d="M5.45605 3.42969C4.5446 3.42969 3.83887 3.77344 3.33887 4.46094C2.83887 5.14323 2.58887 6.09635 2.58887 7.32031C2.58887 9.86719 3.5446 11.1406 5.45605 11.1406C6.25814 11.1406 7.22949 10.9401 8.37012 10.5391V12.5703C7.43262 12.9609 6.38574 13.1562 5.22949 13.1562C3.56803 13.1562 2.2972 12.6536 1.41699 11.6484C0.536784 10.638 0.0966797 9.1901 0.0966797 7.30469C0.0966797 6.11719 0.312826 5.07812 0.745117 4.1875C1.17741 3.29167 1.7972 2.60677 2.60449 2.13281C3.41699 1.65365 4.36751 1.41406 5.45605 1.41406C6.56543 1.41406 7.68001 1.68229 8.7998 2.21875L8.01855 4.1875C7.59147 3.98438 7.16178 3.80729 6.72949 3.65625C6.2972 3.50521 5.87272 3.42969 5.45605 3.42969ZM12.2786 8.61719C12.2786 9.48177 12.4192 10.1354 12.7004 10.5781C12.9869 11.0208 13.4504 11.2422 14.0911 11.2422C14.7265 11.2422 15.1822 11.0234 15.4582 10.5859C15.7395 10.1432 15.8801 9.48698 15.8801 8.61719C15.8801 7.7526 15.7395 7.10417 15.4582 6.67188C15.177 6.23958 14.7161 6.02344 14.0754 6.02344C13.44 6.02344 12.9817 6.23958 12.7004 6.67188C12.4192 7.09896 12.2786 7.7474 12.2786 8.61719ZM18.3176 8.61719C18.3176 10.0391 17.9426 11.151 17.1926 11.9531C16.4426 12.7552 15.3983 13.1562 14.0598 13.1562C13.2213 13.1562 12.4817 12.974 11.8411 12.6094C11.2004 12.2396 10.7082 11.7109 10.3645 11.0234C10.0207 10.3359 9.84887 9.53385 9.84887 8.61719C9.84887 7.1901 10.2213 6.08073 10.9661 5.28906C11.7108 4.4974 12.7577 4.10156 14.1067 4.10156C14.9452 4.10156 15.6848 4.28385 16.3254 4.64844C16.9661 5.01302 17.4582 5.53646 17.802 6.21875C18.1457 6.90104 18.3176 7.70052 18.3176 8.61719ZM27.8667 13H25.4839V7.89844C25.4839 7.26823 25.3771 6.79688 25.1636 6.48438C24.9552 6.16667 24.6245 6.00781 24.1714 6.00781C23.562 6.00781 23.1193 6.23177 22.8432 6.67969C22.5672 7.1276 22.4292 7.86458 22.4292 8.89062V13H20.0464V4.26562H21.8667L22.187 5.38281H22.3198C22.5542 4.98177 22.8927 4.66927 23.3354 4.44531C23.7781 4.21615 24.286 4.10156 24.8589 4.10156C26.1662 4.10156 27.0516 4.52865 27.5151 5.38281H27.7261C27.9604 4.97656 28.3042 4.66146 28.7573 4.4375C29.2156 4.21354 29.7313 4.10156 30.3042 4.10156C31.2938 4.10156 32.0412 4.35677 32.5464 4.86719C33.0568 5.3724 33.312 6.1849 33.312 7.30469V13H30.9214V7.89844C30.9214 7.26823 30.8146 6.79688 30.6011 6.48438C30.3927 6.16667 30.062 6.00781 29.6089 6.00781C29.0255 6.00781 28.588 6.21615 28.2964 6.63281C28.0099 7.04948 27.8667 7.71094 27.8667 8.61719V13ZM40.322 13.1562C39.2959 13.1562 38.4913 12.7839 37.9079 12.0391H37.7829C37.8663 12.7682 37.9079 13.1901 37.9079 13.3047V16.8438H35.5251V4.26562H37.4626L37.7986 5.39844H37.9079C38.4652 4.53385 39.2907 4.10156 40.3845 4.10156C41.4157 4.10156 42.223 4.5 42.8064 5.29688C43.3897 6.09375 43.6814 7.20052 43.6814 8.61719C43.6814 9.54948 43.5433 10.3594 43.2673 11.0469C42.9965 11.7344 42.6084 12.2578 42.1032 12.6172C41.598 12.9766 41.0043 13.1562 40.322 13.1562ZM39.6189 6.00781C39.0303 6.00781 38.6006 6.1901 38.3298 6.55469C38.059 6.91406 37.9183 7.51042 37.9079 8.34375V8.60156C37.9079 9.53906 38.0459 10.2109 38.322 10.6172C38.6032 11.0234 39.0459 11.2266 39.6501 11.2266C40.7178 11.2266 41.2517 10.3464 41.2517 8.58594C41.2517 7.72656 41.1189 7.08333 40.8532 6.65625C40.5928 6.22396 40.1814 6.00781 39.6189 6.00781ZM51.5976 13L51.2773 11.8828H51.1523C50.8971 12.2891 50.5351 12.6042 50.0664 12.8281C49.5976 13.0469 49.0638 13.1562 48.4648 13.1562C47.4388 13.1562 46.6653 12.8828 46.1445 12.3359C45.6237 11.7839 45.3632 10.9922 45.3632 9.96094V4.26562H47.7461V9.36719C47.7461 9.9974 47.858 10.4714 48.082 10.7891C48.306 11.1016 48.6627 11.2578 49.1523 11.2578C49.819 11.2578 50.3007 11.0365 50.5976 10.5938C50.8945 10.1458 51.0429 9.40625 51.0429 8.375V4.26562H53.4257V13H51.5976ZM59.3654 11.2578C59.7821 11.2578 60.2821 11.1667 60.8654 10.9844V12.7578C60.2717 13.0234 59.5425 13.1562 58.6779 13.1562C57.7248 13.1562 57.0295 12.9167 56.592 12.4375C56.1597 11.9531 55.9436 11.2292 55.9436 10.2656V6.05469H54.8029V5.04688L56.1154 4.25L56.8029 2.40625H58.3264V4.26562H60.7717V6.05469H58.3264V10.2656C58.3264 10.6042 58.4201 10.8542 58.6076 11.0156C58.8003 11.1771 59.0529 11.2578 59.3654 11.2578ZM67.9457 13L67.4848 11.8125H67.4223C67.0213 12.3177 66.6072 12.6693 66.1801 12.8672C65.7582 13.0599 65.2062 13.1562 64.5239 13.1562C63.6853 13.1562 63.0239 12.9167 62.5395 12.4375C62.0603 11.9583 61.8207 11.276 61.8207 10.3906C61.8207 9.46354 62.1437 8.78125 62.7895 8.34375C63.4405 7.90104 64.4197 7.65625 65.727 7.60938L67.2426 7.5625V7.17969C67.2426 6.29427 66.7895 5.85156 65.8832 5.85156C65.1853 5.85156 64.365 6.0625 63.4223 6.48438L62.6332 4.875C63.6385 4.34896 64.753 4.08594 65.977 4.08594C67.1489 4.08594 68.0473 4.34115 68.6723 4.85156C69.2973 5.36198 69.6098 6.13802 69.6098 7.17969V13H67.9457ZM67.2426 8.95312L66.3207 8.98438C65.628 9.00521 65.1124 9.13021 64.7739 9.35938C64.4353 9.58854 64.2661 9.9375 64.2661 10.4062C64.2661 11.0781 64.6515 11.4141 65.4223 11.4141C65.9744 11.4141 66.4145 11.2552 66.7426 10.9375C67.076 10.6198 67.2426 10.1979 67.2426 9.67188V8.95312ZM74.5964 13.1562C73.5703 13.1562 72.763 12.7578 72.1745 11.9609C71.5912 11.1641 71.2995 10.0599 71.2995 8.64844C71.2995 7.21615 71.5964 6.10156 72.1901 5.30469C72.7891 4.5026 73.612 4.10156 74.6589 4.10156C75.7578 4.10156 76.5964 4.52865 77.1745 5.38281H77.2526C77.1328 4.73177 77.0729 4.15104 77.0729 3.64062V0.84375H79.4636V13H77.6354L77.1745 11.8672H77.0729C76.5313 12.7266 75.7057 13.1562 74.5964 13.1562ZM75.4323 11.2578C76.0417 11.2578 76.487 11.0807 76.7682 10.7266C77.0547 10.3724 77.211 9.77083 77.237 8.92188V8.66406C77.237 7.72656 77.0912 7.05469 76.7995 6.64844C76.513 6.24219 76.0443 6.03906 75.3932 6.03906C74.862 6.03906 74.4479 6.26562 74.1511 6.71875C73.8594 7.16667 73.7136 7.82031 73.7136 8.67969C73.7136 9.53906 73.862 10.1849 74.1589 10.6172C74.4557 11.0443 74.8802 11.2578 75.4323 11.2578ZM83.6142 8.61719C83.6142 9.48177 83.7548 10.1354 84.0361 10.5781C84.3225 11.0208 84.7861 11.2422 85.4267 11.2422C86.0621 11.2422 86.5178 11.0234 86.7939 10.5859C87.0751 10.1432 87.2157 9.48698 87.2157 8.61719C87.2157 7.7526 87.0751 7.10417 86.7939 6.67188C86.5126 6.23958 86.0517 6.02344 85.4111 6.02344C84.7756 6.02344 84.3173 6.23958 84.0361 6.67188C83.7548 7.09896 83.6142 7.7474 83.6142 8.61719ZM89.6532 8.61719C89.6532 10.0391 89.2782 11.151 88.5282 11.9531C87.7782 12.7552 86.734 13.1562 85.3954 13.1562C84.5569 13.1562 83.8173 12.974 83.1767 12.6094C82.5361 12.2396 82.0439 11.7109 81.7001 11.0234C81.3564 10.3359 81.1845 9.53385 81.1845 8.61719C81.1845 7.1901 81.5569 6.08073 82.3017 5.28906C83.0465 4.4974 84.0933 4.10156 85.4423 4.10156C86.2808 4.10156 87.0204 4.28385 87.6611 4.64844C88.3017 5.01302 88.7939 5.53646 89.1376 6.21875C89.4814 6.90104 89.6532 7.70052 89.6532 8.61719ZM96.257 4.10156C96.5799 4.10156 96.8481 4.125 97.0617 4.17188L96.882 6.40625C96.6893 6.35417 96.4549 6.32812 96.1789 6.32812C95.4184 6.32812 94.8247 6.52344 94.3976 6.91406C93.9757 7.30469 93.7648 7.85156 93.7648 8.55469V13H91.382V4.26562H93.1867L93.5382 5.73438H93.6554C93.9263 5.24479 94.2908 4.85156 94.7492 4.55469C95.2127 4.2526 95.7153 4.10156 96.257 4.10156ZM111.988 7.17969C111.988 9.0599 111.451 10.5 110.379 11.5C109.311 12.5 107.767 13 105.746 13H102.511V1.57812H106.097C107.962 1.57812 109.41 2.07031 110.441 3.05469C111.472 4.03906 111.988 5.41406 111.988 7.17969ZM109.472 7.24219C109.472 4.78906 108.389 3.5625 106.222 3.5625H104.933V11H105.972C108.306 11 109.472 9.7474 109.472 7.24219ZM117.545 5.79688C117.04 5.79688 116.644 5.95833 116.357 6.28125C116.071 6.59896 115.907 7.05208 115.865 7.64062H119.209C119.198 7.05208 119.045 6.59896 118.748 6.28125C118.451 5.95833 118.05 5.79688 117.545 5.79688ZM117.881 13.1562C116.474 13.1562 115.376 12.7682 114.584 11.9922C113.792 11.2161 113.396 10.1172 113.396 8.69531C113.396 7.23177 113.761 6.10156 114.49 5.30469C115.224 4.5026 116.238 4.10156 117.529 4.10156C118.764 4.10156 119.724 4.45312 120.412 5.15625C121.099 5.85938 121.443 6.83073 121.443 8.07031V9.22656H115.81C115.836 9.90365 116.037 10.4323 116.412 10.8125C116.787 11.1927 117.313 11.3828 117.99 11.3828C118.516 11.3828 119.014 11.3281 119.482 11.2188C119.951 11.1094 120.441 10.9349 120.951 10.6953V12.5391C120.534 12.7474 120.089 12.901 119.615 13C119.141 13.1042 118.563 13.1562 117.881 13.1562ZM129.234 10.4062C129.234 11.3021 128.922 11.9844 128.297 12.4531C127.677 12.9219 126.748 13.1562 125.508 13.1562C124.873 13.1562 124.331 13.112 123.883 13.0234C123.435 12.9401 123.016 12.8151 122.625 12.6484V10.6797C123.068 10.888 123.565 11.0625 124.117 11.2031C124.675 11.3438 125.164 11.4141 125.586 11.4141C126.451 11.4141 126.883 11.1641 126.883 10.6641C126.883 10.4766 126.826 10.3255 126.711 10.2109C126.596 10.0911 126.399 9.95833 126.117 9.8125C125.836 9.66146 125.461 9.48698 124.992 9.28906C124.32 9.00781 123.826 8.7474 123.508 8.50781C123.195 8.26823 122.966 7.99479 122.82 7.6875C122.68 7.375 122.609 6.99219 122.609 6.53906C122.609 5.76302 122.909 5.16406 123.508 4.74219C124.112 4.3151 124.966 4.10156 126.07 4.10156C127.123 4.10156 128.146 4.33073 129.141 4.78906L128.422 6.50781C127.984 6.32031 127.576 6.16667 127.195 6.04688C126.815 5.92708 126.427 5.86719 126.031 5.86719C125.328 5.86719 124.977 6.05729 124.977 6.4375C124.977 6.65104 125.089 6.83594 125.313 6.99219C125.542 7.14844 126.039 7.38021 126.805 7.6875C127.487 7.96354 127.987 8.22135 128.305 8.46094C128.623 8.70052 128.857 8.97656 129.008 9.28906C129.159 9.60156 129.234 9.97396 129.234 10.4062ZM133.143 8.25L134.182 6.92188L136.627 4.26562H139.315L135.846 8.05469L139.526 13H136.776L134.26 9.46094L133.237 10.2812V13H130.854V0.84375H133.237V6.26562L133.112 8.25H133.143ZM144.215 11.2578C144.632 11.2578 145.132 11.1667 145.715 10.9844V12.7578C145.122 13.0234 144.393 13.1562 143.528 13.1562C142.575 13.1562 141.879 12.9167 141.442 12.4375C141.01 11.9531 140.794 11.2292 140.794 10.2656V6.05469H139.653V5.04688L140.965 4.25L141.653 2.40625H143.176V4.26562H145.622V6.05469H143.176V10.2656C143.176 10.6042 143.27 10.8542 143.458 11.0156C143.65 11.1771 143.903 11.2578 144.215 11.2578ZM149.147 8.61719C149.147 9.48177 149.288 10.1354 149.569 10.5781C149.856 11.0208 150.319 11.2422 150.96 11.2422C151.595 11.2422 152.051 11.0234 152.327 10.5859C152.608 10.1432 152.749 9.48698 152.749 8.61719C152.749 7.7526 152.608 7.10417 152.327 6.67188C152.046 6.23958 151.585 6.02344 150.944 6.02344C150.309 6.02344 149.85 6.23958 149.569 6.67188C149.288 7.09896 149.147 7.7474 149.147 8.61719ZM155.186 8.61719C155.186 10.0391 154.811 11.151 154.061 11.9531C153.311 12.7552 152.267 13.1562 150.929 13.1562C150.09 13.1562 149.35 12.974 148.71 12.6094C148.069 12.2396 147.577 11.7109 147.233 11.0234C146.889 10.3359 146.718 9.53385 146.718 8.61719C146.718 7.1901 147.09 6.08073 147.835 5.28906C148.58 4.4974 149.626 4.10156 150.975 4.10156C151.814 4.10156 152.554 4.28385 153.194 4.64844C153.835 5.01302 154.327 5.53646 154.671 6.21875C155.014 6.90104 155.186 7.70052 155.186 8.61719ZM161.712 13.1562C160.686 13.1562 159.881 12.7839 159.298 12.0391H159.173C159.256 12.7682 159.298 13.1901 159.298 13.3047V16.8438H156.915V4.26562H158.853L159.189 5.39844H159.298C159.855 4.53385 160.681 4.10156 161.774 4.10156C162.806 4.10156 163.613 4.5 164.196 5.29688C164.78 6.09375 165.071 7.20052 165.071 8.61719C165.071 9.54948 164.933 10.3594 164.657 11.0469C164.386 11.7344 163.998 12.2578 163.493 12.6172C162.988 12.9766 162.394 13.1562 161.712 13.1562ZM161.009 6.00781C160.42 6.00781 159.991 6.1901 159.72 6.55469C159.449 6.91406 159.308 7.51042 159.298 8.34375V8.60156C159.298 9.53906 159.436 10.2109 159.712 10.6172C159.993 11.0234 160.436 11.2266 161.04 11.2266C162.108 11.2266 162.642 10.3464 162.642 8.58594C162.642 7.72656 162.509 7.08333 162.243 6.65625C161.983 6.22396 161.571 6.00781 161.009 6.00781ZM169.943 9.6875V7.73438H174.138V9.6875H169.943ZM179.736 13V1.57812H182.158V13H179.736ZM192.668 13H190.285V7.89844C190.285 7.26823 190.173 6.79688 189.949 6.48438C189.726 6.16667 189.369 6.00781 188.879 6.00781C188.213 6.00781 187.731 6.23177 187.434 6.67969C187.137 7.1224 186.989 7.85938 186.989 8.89062V13H184.606V4.26562H186.426L186.746 5.38281H186.879C187.145 4.96094 187.509 4.64323 187.973 4.42969C188.442 4.21094 188.973 4.10156 189.567 4.10156C190.582 4.10156 191.353 4.3776 191.879 4.92969C192.405 5.47656 192.668 6.26823 192.668 7.30469V13ZM198.561 11.2578C198.978 11.2578 199.478 11.1667 200.061 10.9844V12.7578C199.467 13.0234 198.738 13.1562 197.874 13.1562C196.92 13.1562 196.225 12.9167 195.788 12.4375C195.355 11.9531 195.139 11.2292 195.139 10.2656V6.05469H193.999V5.04688L195.311 4.25L195.999 2.40625H197.522V4.26562H199.967V6.05469H197.522V10.2656C197.522 10.6042 197.616 10.8542 197.803 11.0156C197.996 11.1771 198.249 11.2578 198.561 11.2578ZM205.212 5.79688C204.706 5.79688 204.311 5.95833 204.024 6.28125C203.738 6.59896 203.574 7.05208 203.532 7.64062H206.876C206.865 7.05208 206.712 6.59896 206.415 6.28125C206.118 5.95833 205.717 5.79688 205.212 5.79688ZM205.548 13.1562C204.141 13.1562 203.042 12.7682 202.251 11.9922C201.459 11.2161 201.063 10.1172 201.063 8.69531C201.063 7.23177 201.428 6.10156 202.157 5.30469C202.891 4.5026 203.904 4.10156 205.196 4.10156C206.43 4.10156 207.391 4.45312 208.079 5.15625C208.766 5.85938 209.11 6.83073 209.11 8.07031V9.22656H203.477C203.503 9.90365 203.704 10.4323 204.079 10.8125C204.454 11.1927 204.98 11.3828 205.657 11.3828C206.183 11.3828 206.68 11.3281 207.149 11.2188C207.618 11.1094 208.108 10.9349 208.618 10.6953V12.5391C208.201 12.7474 207.756 12.901 207.282 13C206.808 13.1042 206.23 13.1562 205.548 13.1562ZM213.19 13H210.808V0.84375H213.19V13ZM224.414 3.42969C223.502 3.42969 222.796 3.77344 222.296 4.46094C221.796 5.14323 221.546 6.09635 221.546 7.32031C221.546 9.86719 222.502 11.1406 224.414 11.1406C225.216 11.1406 226.187 10.9401 227.328 10.5391V12.5703C226.39 12.9609 225.343 13.1562 224.187 13.1562C222.526 13.1562 221.255 12.6536 220.374 11.6484C219.494 10.638 219.054 9.1901 219.054 7.30469C219.054 6.11719 219.27 5.07812 219.703 4.1875C220.135 3.29167 220.755 2.60677 221.562 2.13281C222.374 1.65365 223.325 1.41406 224.414 1.41406C225.523 1.41406 226.638 1.68229 227.757 2.21875L226.976 4.1875C226.549 3.98438 226.119 3.80729 225.687 3.65625C225.255 3.50521 224.83 3.42969 224.414 3.42969ZM231.236 8.61719C231.236 9.48177 231.377 10.1354 231.658 10.5781C231.944 11.0208 232.408 11.2422 233.049 11.2422C233.684 11.2422 234.14 11.0234 234.416 10.5859C234.697 10.1432 234.838 9.48698 234.838 8.61719C234.838 7.7526 234.697 7.10417 234.416 6.67188C234.134 6.23958 233.674 6.02344 233.033 6.02344C232.398 6.02344 231.939 6.23958 231.658 6.67188C231.377 7.09896 231.236 7.7474 231.236 8.61719ZM237.275 8.61719C237.275 10.0391 236.9 11.151 236.15 11.9531C235.4 12.7552 234.356 13.1562 233.017 13.1562C232.179 13.1562 231.439 12.974 230.799 12.6094C230.158 12.2396 229.666 11.7109 229.322 11.0234C228.978 10.3359 228.806 9.53385 228.806 8.61719C228.806 7.1901 229.179 6.08073 229.924 5.28906C230.668 4.4974 231.715 4.10156 233.064 4.10156C233.903 4.10156 234.642 4.28385 235.283 4.64844C235.924 5.01302 236.416 5.53646 236.759 6.21875C237.103 6.90104 237.275 7.70052 237.275 8.61719ZM243.879 4.10156C244.202 4.10156 244.47 4.125 244.684 4.17188L244.504 6.40625C244.311 6.35417 244.077 6.32812 243.801 6.32812C243.04 6.32812 242.447 6.52344 242.019 6.91406C241.598 7.30469 241.387 7.85156 241.387 8.55469V13H239.004V4.26562H240.809L241.16 5.73438H241.277C241.548 5.24479 241.913 4.85156 242.371 4.55469C242.835 4.2526 243.337 4.10156 243.879 4.10156ZM249.647 5.79688C249.141 5.79688 248.746 5.95833 248.459 6.28125C248.173 6.59896 248.009 7.05208 247.967 7.64062H251.311C251.3 7.05208 251.147 6.59896 250.85 6.28125C250.553 5.95833 250.152 5.79688 249.647 5.79688ZM249.983 13.1562C248.576 13.1562 247.477 12.7682 246.686 11.9922C245.894 11.2161 245.498 10.1172 245.498 8.69531C245.498 7.23177 245.863 6.10156 246.592 5.30469C247.326 4.5026 248.339 4.10156 249.631 4.10156C250.865 4.10156 251.826 4.45312 252.514 5.15625C253.201 5.85938 253.545 6.83073 253.545 8.07031V9.22656H247.912C247.938 9.90365 248.139 10.4323 248.514 10.8125C248.889 11.1927 249.415 11.3828 250.092 11.3828C250.618 11.3828 251.115 11.3281 251.584 11.2188C252.053 11.1094 252.543 10.9349 253.053 10.6953V12.5391C252.636 12.7474 252.191 12.901 251.717 13C251.243 13.1042 250.665 13.1562 249.983 13.1562ZM259.057 2.00781C259.057 1.23177 259.49 0.84375 260.354 0.84375C261.219 0.84375 261.651 1.23177 261.651 2.00781C261.651 2.3776 261.542 2.66667 261.323 2.875C261.109 3.07812 260.786 3.17969 260.354 3.17969C259.49 3.17969 259.057 2.78906 259.057 2.00781ZM261.542 13H259.159V4.26562H261.542V13ZM264.333 13L268.622 3.625H262.989V1.59375H271.184V3.10938L266.864 13H264.333Z" fill="#263238"/>
</svg>
