<svg width="93" height="19" viewBox="0 0 93 19" fill="none" xmlns="http://www.w3.org/2000/svg">
<path d="M11.2783 7.45215C11.2783 9.56738 10.6748 11.1875 9.46777 12.3125C8.2666 13.4375 6.5293 14 4.25586 14H0.617188V1.15039H4.65137C6.74902 1.15039 8.37793 1.7041 9.53809 2.81152C10.6982 3.91895 11.2783 5.46582 11.2783 7.45215ZM8.44824 7.52246C8.44824 4.7627 7.22949 3.38281 4.79199 3.38281H3.3418V11.75H4.51074C7.13574 11.75 8.44824 10.3408 8.44824 7.52246ZM21.2564 10.4316C21.2564 11.5918 20.8374 12.5059 19.9995 13.1738C19.1675 13.8418 18.0073 14.1758 16.5191 14.1758C15.148 14.1758 13.9351 13.918 12.8804 13.4023V10.8711C13.7476 11.2578 14.48 11.5303 15.0777 11.6885C15.6812 11.8467 16.232 11.9258 16.73 11.9258C17.3277 11.9258 17.7847 11.8115 18.1011 11.583C18.4234 11.3545 18.5845 11.0146 18.5845 10.5635C18.5845 10.3115 18.5142 10.0889 18.3736 9.89551C18.2329 9.69629 18.0249 9.50586 17.7495 9.32422C17.48 9.14258 16.9263 8.85254 16.0884 8.4541C15.3032 8.08496 14.7144 7.73047 14.3218 7.39062C13.9292 7.05078 13.6157 6.65527 13.3814 6.2041C13.147 5.75293 13.0298 5.22559 13.0298 4.62207C13.0298 3.48535 13.4136 2.5918 14.1812 1.94141C14.9546 1.29102 16.021 0.96582 17.3804 0.96582C18.0484 0.96582 18.6841 1.04492 19.2876 1.20312C19.897 1.36133 20.5327 1.58398 21.1948 1.87109L20.3159 3.98926C19.6304 3.70801 19.062 3.51172 18.6109 3.40039C18.1655 3.28906 17.7261 3.2334 17.2925 3.2334C16.7769 3.2334 16.3814 3.35352 16.106 3.59375C15.8306 3.83398 15.6929 4.14746 15.6929 4.53418C15.6929 4.77441 15.7486 4.98535 15.8599 5.16699C15.9712 5.34277 16.147 5.51562 16.3872 5.68555C16.6333 5.84961 17.2105 6.14844 18.1187 6.58203C19.3198 7.15625 20.1431 7.7334 20.5884 8.31348C21.0337 8.8877 21.2564 9.59375 21.2564 10.4316ZM33.1793 3.2334C32.1539 3.2334 31.3599 3.62012 30.7974 4.39355C30.2349 5.16113 29.9537 6.2334 29.9537 7.61035C29.9537 10.4756 31.0289 11.9082 33.1793 11.9082C34.0816 11.9082 35.1744 11.6826 36.4576 11.2314V13.5166C35.4029 13.9561 34.2252 14.1758 32.9244 14.1758C31.0552 14.1758 29.6255 13.6104 28.6353 12.4795C27.6451 11.3428 27.15 9.71387 27.15 7.59277C27.15 6.25684 27.3931 5.08789 27.8795 4.08594C28.3658 3.07812 29.063 2.30762 29.9713 1.77441C30.8853 1.23535 31.9546 0.96582 33.1793 0.96582C34.4273 0.96582 35.6812 1.26758 36.941 1.87109L36.0621 4.08594C35.5816 3.85742 35.0982 3.6582 34.6119 3.48828C34.1255 3.31836 33.648 3.2334 33.1793 3.2334ZM44.9591 14L44.4405 12.6641H44.3702C43.919 13.2324 43.4532 13.6279 42.9727 13.8506C42.4981 14.0674 41.877 14.1758 41.1095 14.1758C40.1661 14.1758 39.422 13.9062 38.877 13.3672C38.338 12.8281 38.0684 12.0605 38.0684 11.0645C38.0684 10.0215 38.4317 9.25391 39.1583 8.76172C39.8907 8.26367 40.9923 7.98828 42.463 7.93555L44.168 7.88281V7.45215C44.168 6.45605 43.6583 5.95801 42.6387 5.95801C41.8536 5.95801 40.9307 6.19531 39.8702 6.66992L38.9825 4.85938C40.1134 4.26758 41.3673 3.97168 42.7442 3.97168C44.0626 3.97168 45.0733 4.25879 45.7764 4.83301C46.4796 5.40723 46.8311 6.28027 46.8311 7.45215V14H44.9591ZM44.168 9.44727L43.1309 9.48242C42.3516 9.50586 41.7716 9.64648 41.3907 9.9043C41.0098 10.1621 40.8194 10.5547 40.8194 11.082C40.8194 11.8379 41.253 12.2158 42.1202 12.2158C42.7413 12.2158 43.2364 12.0371 43.6055 11.6797C43.9805 11.3223 44.168 10.8477 44.168 10.2559V9.44727ZM53.4693 12.04C53.9381 12.04 54.5006 11.9375 55.1568 11.7324V13.7275C54.4889 14.0264 53.6686 14.1758 52.6959 14.1758C51.6236 14.1758 50.8414 13.9062 50.3492 13.3672C49.8629 12.8223 49.6197 12.0078 49.6197 10.9238V6.18652H48.3365V5.05273L49.8131 4.15625L50.5865 2.08203H52.3004V4.17383H55.0514V6.18652H52.3004V10.9238C52.3004 11.3047 52.4059 11.5859 52.6168 11.7676C52.8336 11.9492 53.1178 12.04 53.4693 12.04ZM63.1222 14L62.6036 12.6641H62.5333C62.0821 13.2324 61.6163 13.6279 61.1359 13.8506C60.6613 14.0674 60.0402 14.1758 59.2726 14.1758C58.3292 14.1758 57.5851 13.9062 57.0402 13.3672C56.5011 12.8281 56.2316 12.0605 56.2316 11.0645C56.2316 10.0215 56.5948 9.25391 57.3214 8.76172C58.0538 8.26367 59.1554 7.98828 60.6261 7.93555L62.3312 7.88281V7.45215C62.3312 6.45605 61.8214 5.95801 60.8019 5.95801C60.0167 5.95801 59.0939 6.19531 58.0333 6.66992L57.1456 4.85938C58.2765 4.26758 59.5304 3.97168 60.9073 3.97168C62.2257 3.97168 63.2364 4.25879 63.9396 4.83301C64.6427 5.40723 64.9943 6.28027 64.9943 7.45215V14H63.1222ZM62.3312 9.44727L61.2941 9.48242C60.5148 9.50586 59.9347 9.64648 59.5538 9.9043C59.173 10.1621 58.9825 10.5547 58.9825 11.082C58.9825 11.8379 59.4161 12.2158 60.2833 12.2158C60.9044 12.2158 61.3995 12.0371 61.7687 11.6797C62.1437 11.3223 62.3312 10.8477 62.3312 10.2559V9.44727ZM70.1735 14H67.4928V0.324219H70.1735V14ZM74.8605 9.06934C74.8605 10.042 75.0187 10.7773 75.3351 11.2754C75.6574 11.7734 76.1789 12.0225 76.8996 12.0225C77.6144 12.0225 78.1271 11.7764 78.4377 11.2842C78.7541 10.7861 78.9123 10.0479 78.9123 9.06934C78.9123 8.09668 78.7541 7.36719 78.4377 6.88086C78.1212 6.39453 77.6027 6.15137 76.882 6.15137C76.1671 6.15137 75.6515 6.39453 75.3351 6.88086C75.0187 7.36133 74.8605 8.09082 74.8605 9.06934ZM81.6544 9.06934C81.6544 10.6689 81.2326 11.9199 80.3888 12.8223C79.5451 13.7246 78.3703 14.1758 76.8644 14.1758C75.9211 14.1758 75.089 13.9707 74.3683 13.5605C73.6476 13.1445 73.0939 12.5498 72.7072 11.7764C72.3205 11.0029 72.1271 10.1006 72.1271 9.06934C72.1271 7.46387 72.5461 6.21582 73.3839 5.3252C74.2218 4.43457 75.3996 3.98926 76.9171 3.98926C77.8605 3.98926 78.6925 4.19434 79.4132 4.60449C80.1339 5.01465 80.6877 5.60352 81.0744 6.37109C81.4611 7.13867 81.6544 8.03809 81.6544 9.06934ZM92.1511 4.17383V5.53613L90.613 5.93164C90.8942 6.37109 91.0348 6.86328 91.0348 7.4082C91.0348 8.46289 90.6657 9.28613 89.9274 9.87793C89.195 10.4639 88.1755 10.7568 86.8688 10.7568L86.3854 10.7305L85.9899 10.6865C85.7145 10.8975 85.5768 11.1318 85.5768 11.3896C85.5768 11.7764 86.069 11.9697 87.0534 11.9697H88.7233C89.8014 11.9697 90.6218 12.2012 91.1843 12.6641C91.7526 13.127 92.0368 13.8066 92.0368 14.7031C92.0368 15.8516 91.5563 16.7422 90.5954 17.375C89.6403 18.0078 88.2663 18.3242 86.4733 18.3242C85.1022 18.3242 84.0534 18.084 83.3268 17.6035C82.6061 17.1289 82.2458 16.4609 82.2458 15.5996C82.2458 15.0078 82.4304 14.5127 82.7995 14.1143C83.1686 13.7158 83.7106 13.4316 84.4255 13.2617C84.1501 13.1445 83.9098 12.9541 83.7048 12.6904C83.4997 12.4209 83.3971 12.1367 83.3971 11.8379C83.3971 11.4629 83.5055 11.1523 83.7223 10.9062C83.9391 10.6543 84.2526 10.4082 84.6628 10.168C84.1471 9.94531 83.737 9.58789 83.4323 9.0957C83.1335 8.60352 82.9841 8.02344 82.9841 7.35547C82.9841 6.2832 83.3327 5.4541 84.03 4.86816C84.7272 4.28223 85.7233 3.98926 87.0182 3.98926C87.2936 3.98926 87.6188 4.01562 87.9938 4.06836C88.3747 4.11523 88.6179 4.15039 88.7233 4.17383H92.1511ZM84.5661 15.3887C84.5661 15.7578 84.7419 16.0479 85.0934 16.2588C85.4509 16.4697 85.9489 16.5752 86.5876 16.5752C87.5485 16.5752 88.3014 16.4434 88.8464 16.1797C89.3913 15.916 89.6637 15.5557 89.6637 15.0986C89.6637 14.7295 89.5026 14.4746 89.1804 14.334C88.8581 14.1934 88.36 14.123 87.6862 14.123H86.2975C85.8054 14.123 85.3923 14.2373 85.0583 14.4658C84.7302 14.7002 84.5661 15.0078 84.5661 15.3887ZM85.5417 7.39062C85.5417 7.92383 85.6618 8.3457 85.902 8.65625C86.1481 8.9668 86.5202 9.12207 87.0182 9.12207C87.5221 9.12207 87.8913 8.9668 88.1257 8.65625C88.36 8.3457 88.4772 7.92383 88.4772 7.39062C88.4772 6.20703 87.9909 5.61523 87.0182 5.61523C86.0339 5.61523 85.5417 6.20703 85.5417 7.39062Z" fill="white"/>
</svg>
