<svg width="36" height="23" viewBox="0 0 36 23" fill="none" xmlns="http://www.w3.org/2000/svg">
<path fill-rule="evenodd" clip-rule="evenodd" d="M0.867881 9.7196C0.356377 10.6313 0.356377 11.7436 0.867881 12.6553C4.14172 18.4908 10.5975 22.3749 17.927 22.3749C19.9745 22.3749 21.9539 22.0718 23.8148 21.5077L21.4207 19.0229C20.2952 19.2534 19.1262 19.3749 17.927 19.3749C11.6583 19.3749 6.21548 16.0557 3.48425 11.1875C4.70798 9.00622 6.47607 7.13597 8.61888 5.7359L6.5058 3.54274C4.17921 5.16202 2.2429 7.2687 0.867881 9.7196ZM27.5017 19.9698C30.6544 18.2613 33.2616 15.729 34.986 12.6553C35.4975 11.7436 35.4975 10.6313 34.986 9.7196C31.7122 3.88416 25.2565 0 17.927 0C15.0606 0 12.3278 0.594046 9.86673 1.66653L8.60193 0.353797C8.24255 -0.0192035 7.64859 -0.0304723 7.2753 0.328628C6.90201 0.687727 6.89073 1.28121 7.25011 1.65421L26.6403 21.7792C26.9997 22.1522 27.5936 22.1635 27.9669 21.8044C28.3402 21.4453 28.3515 20.8518 27.9921 20.4788L27.5017 19.9698ZM12.1153 4.00033C13.9207 3.35399 15.8798 3 17.927 3C24.1956 3 29.6384 6.31919 32.3697 11.1875C30.7991 13.9869 28.332 16.274 25.3268 17.7124L22.7808 15.07C23.5557 14.0135 24.0173 12.6849 24.0173 11.2417C24.0173 7.79909 21.3908 5.00834 18.1507 5.00834C16.743 5.00834 15.4511 5.53511 14.4401 6.41324L12.1153 4.00033ZM12.284 11.2417C12.284 10.7175 12.3449 10.2085 12.4596 9.72214L19.7138 17.2513C19.2162 17.3971 18.692 17.475 18.1507 17.475C14.9106 17.475 12.284 14.6842 12.284 11.2417Z" fill="#9E9E9E"/>
</svg>
